# xmcd
#
# Track frame offsets:
#	150
#	11140
#	22065
#	30695
#	43697
#	52920
#	63375
#	77512
#	91277
#	101957
#	112572
#	122772
#	132637
#	142547
#	153112
#	164672
#	175210
#	184830
#	195657
#	205020
#	217060
#	230525
#	243205
#	254822
#	266462
#	276200
#	288600
#	299315
#	312785
#	324647
#	334257
#
# Disc length: 4595 seconds
#
# Revision: 3
# Processed by: cddbd v1.5.2PL0 Copyright (c) Steve Scherf et al.
# Submitted via: audiograbber 1.83.01
#
DISCID=ca11f11f
DTITLE=Monroe, Bill - Bluegrass 1959-1969 - Volume 3
DYEAR=1991
DGENRE=Bluegrass
TTITLE0=Salt Creek
TTITLE1=Devil's Dream
TTITLE2=Sailor's Hornpipe
TTITLE3=Were You There?
TTITLE4=Pike Country Breakdown
TTITLE5=Shenandoah Breakdown
TTITLE6=Santa Claus
TTITLE7=I'll Meet You In Church Sunday Morning
TTITLE8=Mary At The Home Place
TTITLE9=Highway Of Sorrow
TTITLE10=One Of God's Sheep
TTITLE11=Roll On, Buddy, Roll On
TTITLE12=Legend Of The Blue Ridge Mountains
TTITLE13=Last Old Dollar
TTITLE14=Bill's Dream
TTITLE15=Louisville Breakdown
TTITLE16=Never Again
TTITLE17=Just Over In The Gloryland
TTITLE18=Fire On The Mountain
TTITLE19=The Long Black Veil
TTITLE20=I Live In The Past
TTITLE21=There's An Old, Old House
TTITLE22=When My Blue Moon Turns To Gold Again
TTITLE23=I Wonder Where You Are Tonight
TTITLE24=Turkey In The Straw
TTITLE25=Pretty Fair Maiden In The Garden
TTITLE26=Log Cabin In The Lane
TTITLE27=Paddy On The Turnpike
TTITLE28=That's All Right
TTITLE29=It Makes No Difference Now
TTITLE30=Dusty Miller
EXTD=
EXTT0=
EXTT1=
EXTT2=
EXTT3=
EXTT4=
EXTT5=
EXTT6=
EXTT7=
EXTT8=
EXTT9=
EXTT10=
EXTT11=
EXTT12=
EXTT13=
EXTT14=
EXTT15=
EXTT16=
EXTT17=
EXTT18=
EXTT19=
EXTT20=
EXTT21=
EXTT22=
EXTT23=
EXTT24=
EXTT25=
EXTT26=
EXTT27=
EXTT28=
EXTT29=
EXTT30=
PLAYORDER=
